<?xml version="1.0" encoding="UTF-8"?><svg xmlns="http://www.w3.org/2000/svg" viewBox="0 0 840.32 1115.62"><defs><style>.d{fill:#f77e21;}.e{fill:#fff;}.f{fill:#f17e3a;}.g{fill:none;}</style></defs><g id="a"/><g id="b"><g id="c"><g><path class="d" d="M171.99,183.48c-7.31-2.44-17.06-4.53-28.9-4.53h-33.42C58.49,178.96,0,173.04,0,92.61,0,47.7,22.63,0,97.48,0c57.1,0,100.27,27.51,100.27,108.63v12.54h9.28V4.87h132.07V173.15H191.84v-28.32c0-29.59-9.75-36.9-21.59-36.9-10.79,0-19.5,7.31-19.5,32.38,0,19.5,6.96,31.34,23.67,37.25,7.31,2.79,16.36,4.87,27.51,4.87h51.88c45.26,0,90.52,9.05,90.52,82.86,0,44.91-22.63,92.26-97.48,92.26-57.1,0-100.62-26.81-100.62-107.93v-12.54h-9.29v115.94H5.22V188.24H152.49v23.44c0,29.6,9.75,36.91,21.59,36.91,10.79,0,19.5-7.31,19.5-32.38,0-18.45-6.61-27.85-21.59-32.73Z"/><path class="d" d="M638.19,4.87l55.36,225.61c3.83,15.67,9.75,18.1,21.24,18.1v104.45h-182.32v-104.45h17.99l-7.31-48.74h-30.99l-7.31,48.74h17.99v104.45h-175.01v-104.45c11.14,0,17.41-2.09,21.24-18.1L424.42,4.87h213.77Zm-124.99,188.01h28.9l-12.53-85.3h-3.83l-12.53,85.3Z"/><path class="d" d="M122.38,376.53c50.83,0,82.86,34.47,82.86,98.88v21.59h3.83v-116.28h140.31v171.18H200.71v-11.02c0-29.24-3.13-58.49-23.33-58.49-17.76,0-25.07,12.54-25.07,72.42,0,48.4,3.13,72.42,24.02,72.42,18.8,0,26.81-7.89,26.81-66.03h146.23c0,117.68-50.48,174.66-174.43,174.66S1.91,671.08,1.91,554.79c0-90.52,32.38-178.26,120.46-178.26Z"/><path class="d" d="M8.88,1004.2c11.49,0,19.15-2.44,19.15-17.41v-104.45c0-14.62-8.01-17.41-19.15-17.41v-104.45H182.96c96.44,0,168.51,10.79,168.51,81.12,0,64.06-49.09,87.04-138.57,87.04v3.48c113.5,0,147.62,22.63,147.62,84.6,0,87.04-71.02,91.91-173.03,91.91H8.88v-104.45Zm167.47-139.26h-12.54v62.67h10.79c12.19,0,28.9-4.87,28.9-29.24,0-21.24-9.05-33.42-27.16-33.42Zm1.74,69.63h-14.27v69.63h12.54c13.58,0,32.73-5.22,32.73-32.73,0-22.98-10.1-36.9-30.99-36.9Z"/><polygon class="g" points="523.82 483.42 511.29 568.72 540.19 568.72 527.65 483.42 523.82 483.42"/><path class="g" d="M553.99,890.07c-1.29-15.78-3.54-29.17-7.2-38.57l-10.5,38.47,17.7,.1Z"/><path class="g" d="M538.18,838.97c-2.01-1.36-4.23-2.08-6.7-2.08-19.5,0-24.02,44.76-24.02,97.68s4.53,96.06,24.02,96.06,24.02-43.14,24.02-96.06c0-11.47-.21-22.56-.75-32.89l-33.65-.18,17.07-62.53Z"/><path class="g" d="M705.17,728.87h-124.9l-7.54,27.61c33.78,5.12,62.85,17.2,85.13,38.19l47.31-65.81Z"/><path class="g" d="M712.87,624.42v93.74l108.87-151.43-152.54-51.84,22.43,91.42c3.83,15.67,9.75,18.1,21.24,18.1Z"/><path class="d" d="M821.75,566.74l-108.87,151.43v10.71h-7.7l-47.31,65.81c2.84,2.68,5.56,5.53,8.18,8.5l174.27-242.39-174.39-59.27,3.28,13.37,152.54,51.84Z"/><path class="d" d="M580.27,728.87h-12.03l-7.13,26.13c3.94,.4,7.81,.91,11.62,1.49l7.54-27.61Z"/><path class="d" d="M536.29,889.98l10.5-38.47c-2.28-5.86-5.12-10.17-8.61-12.53l-17.07,62.53,33.65,.18c-.21-3.99-.46-7.87-.77-11.61l-17.7-.1Z"/><path class="d" d="M712.87,718.16v-93.74c-11.49,0-17.41-2.44-21.24-18.1l-22.43-91.42-27.92-9.49-61.01,223.46h124.9l7.7-10.71Z"/><path class="d" d="M665.92,501.52l-29.64-120.81h-213.77l-55.36,225.61c-3.83,16.01-10.1,18.1-21.24,18.1v104.45h175.01v-104.45h-17.99l7.31-48.74h30.99l7.31,48.74h-17.99v104.45h37.69l65.09-238.43,32.59,11.08Zm-154.63,67.19l12.53-85.3h3.83l12.53,85.3h-28.9Z"/><polygon class="f" points="712.87 728.87 712.87 718.16 705.17 728.87 712.87 728.87"/><polygon class="e" points="641.28 505.41 669.2 514.9 665.92 501.52 633.33 490.45 568.24 728.87 580.27 728.87 641.28 505.41"/><path class="d" d="M595.07,901.9l-40.31-.22c.53,10.33,.75,21.42,.75,32.89,0,52.92-4.53,96.06-24.02,96.06s-24.02-43.14-24.02-96.06,4.53-97.68,24.02-97.68c2.47,0,4.69,.72,6.7,2.08l22.93-83.97c-9.56-.98-19.43-1.47-29.62-1.47-102.01,0-174.43,47-174.43,181.04s72.42,181.04,174.43,181.04,174.43-47,174.43-181.04c0-60.11-14.6-102.68-39.87-131.39l-70.98,98.72Z"/><path class="d" d="M589.14,890.26l68.72-95.58c-22.28-21-51.34-33.08-85.13-38.19l-25.94,95.02c3.66,9.4,5.91,22.79,7.2,38.57l35.15,.19Z"/><path class="e" d="M657.86,794.68l-68.72,95.58-35.15-.19c.31,3.75,.56,7.62,.77,11.61l40.31,.22,70.98-98.72c-2.62-2.98-5.34-5.82-8.18-8.5Z"/><path class="e" d="M546.79,851.5l25.94-95.02c-3.82-.58-7.69-1.08-11.62-1.49l-22.93,83.97c3.49,2.36,6.33,6.67,8.61,12.53Z"/></g></g></g></svg>