<?xml version="1.0" encoding="UTF-8"?><svg xmlns="http://www.w3.org/2000/svg" viewBox="0 0 965.11 1133.62"><defs><style>.d{fill:#f77e21;}.e{fill:#fff;}.f{fill:#f17e3a;}.g{fill:none;}</style></defs><g id="a"/><g id="b"><g id="c"><g><path class="d" d="M292.91,184.68c-7.31-2.44-17.06-4.53-28.9-4.53h-33.42c-51.18,0-109.67-5.92-109.67-86.34C120.92,48.89,143.55,1.19,218.4,1.19c57.1,0,100.27,27.51,100.27,108.63v12.54h9.28V6.07h132.07V174.34h-147.27v-28.32c0-29.59-9.75-36.9-21.59-36.9-10.79,0-19.5,7.31-19.5,32.38,0,19.5,6.96,31.34,23.67,37.25,7.31,2.79,16.36,4.87,27.51,4.87h51.88c45.26,0,90.52,9.05,90.52,82.86,0,44.91-22.63,92.26-97.48,92.26-57.1,0-100.62-26.81-100.62-107.93v-12.54h-9.29v115.94H126.14V189.43h147.27v23.44c0,29.6,9.75,36.91,21.59,36.91,10.79,0,19.5-7.31,19.5-32.38,0-18.45-6.61-27.85-21.59-32.73Z"/><path class="d" d="M759.11,6.07l55.36,225.61c3.83,15.67,9.75,18.1,21.24,18.1v104.45h-182.32v-104.45h17.99l-7.31-48.74h-30.99l-7.31,48.74h17.99v104.45h-175.01v-104.45c11.14,0,17.41-2.09,21.24-18.1L545.34,6.07h213.77Zm-124.99,188.01h28.9l-12.53-85.3h-3.83l-12.53,85.3Z"/><path class="d" d="M243.29,377.73c50.83,0,82.86,34.47,82.86,98.88v21.59h3.83v-116.28h140.31v171.18h-148.66v-11.02c0-29.24-3.13-58.49-23.33-58.49-17.76,0-25.07,12.54-25.07,72.42,0,48.4,3.13,72.42,24.02,72.42,18.8,0,26.81-7.89,26.81-66.03h146.23c0,117.68-50.48,174.66-174.43,174.66s-173.04-64.76-173.04-181.04c0-90.52,32.38-178.26,120.46-178.26Z"/><path class="d" d="M129.79,1005.4c11.49,0,19.15-2.44,19.15-17.41v-104.45c0-14.62-8.01-17.41-19.15-17.41v-104.45h174.08c96.44,0,168.51,10.79,168.51,81.12,0,64.06-49.09,87.04-138.57,87.04v3.48c113.5,0,147.62,22.63,147.62,84.6,0,87.04-71.02,91.91-173.03,91.91H129.79v-104.45Zm167.47-139.26h-12.54v62.67h10.79c12.19,0,28.9-4.87,28.9-29.24,0-21.24-9.05-33.42-27.16-33.42Zm1.74,69.63h-14.27v69.63h12.54c13.58,0,32.73-5.22,32.73-32.73,0-22.98-10.1-36.9-30.99-36.9Z"/><polygon class="g" points="644.74 484.61 632.21 569.91 661.1 569.91 648.57 484.61 644.74 484.61"/><path class="g" d="M674.91,891.26c-1.29-15.78-3.54-29.17-7.2-38.57l-10.5,38.47,17.7,.1Z"/><path class="g" d="M659.1,840.17c-2.01-1.36-4.23-2.08-6.7-2.08-19.5,0-24.02,44.76-24.02,97.68s4.53,96.06,24.02,96.06,24.02-43.14,24.02-96.06c0-11.47-.21-22.56-.75-32.89l-33.65-.18,17.07-62.53Z"/><path class="g" d="M826.09,730.07h-124.9l-7.54,27.61c33.78,5.12,62.85,17.2,85.13,38.19l47.31-65.81Z"/><path class="g" d="M833.79,625.62v93.74l108.87-151.43-152.54-51.84,22.43,91.42c3.83,15.67,9.75,18.1,21.24,18.1Z"/><path class="d" d="M942.66,567.93l-108.87,151.43v10.71h-7.7l-47.31,65.81c2.84,2.68,5.56,5.53,8.18,8.5l174.27-242.39-174.39-59.27,3.28,13.37,152.54,51.84Z"/><path class="d" d="M701.19,730.07h-12.03l-7.13,26.13c3.94,.4,7.81,.91,11.62,1.49l7.54-27.61Z"/><path class="d" d="M657.2,891.17l10.5-38.47c-2.28-5.86-5.12-10.17-8.61-12.53l-17.07,62.53,33.65,.18c-.21-3.99-.46-7.87-.77-11.61l-17.7-.1Z"/><path class="d" d="M833.79,719.36v-93.74c-11.49,0-17.41-2.44-21.24-18.1l-22.43-91.42-27.92-9.49-61.01,223.46h124.9l7.7-10.71Z"/><path class="d" d="M786.84,502.72l-29.64-120.81h-213.77l-55.36,225.61c-3.83,16.01-10.1,18.1-21.24,18.1v104.45h175.01v-104.45h-17.99l7.31-48.74h30.99l7.31,48.74h-17.99v104.45h37.69l65.09-238.43,32.59,11.08Zm-154.63,67.19l12.53-85.3h3.83l12.53,85.3h-28.9Z"/><polygon class="f" points="833.79 730.07 833.79 719.36 826.09 730.07 833.79 730.07"/><polygon class="e" points="762.2 506.6 790.12 516.09 786.84 502.72 754.25 491.64 689.16 730.07 701.19 730.07 762.2 506.6"/><path class="d" d="M715.98,903.09l-40.31-.22c.53,10.33,.75,21.42,.75,32.89,0,52.92-4.53,96.06-24.02,96.06s-24.02-43.14-24.02-96.06,4.53-97.68,24.02-97.68c2.47,0,4.69,.72,6.7,2.08l22.93-83.97c-9.56-.98-19.43-1.47-29.62-1.47-102.01,0-174.43,47-174.43,181.04s72.42,181.04,174.43,181.04,174.43-47,174.43-181.04c0-60.11-14.6-102.68-39.87-131.39l-70.98,98.72Z"/><path class="d" d="M710.06,891.45l68.72-95.58c-22.28-21-51.34-33.08-85.13-38.19l-25.94,95.02c3.66,9.4,5.91,22.79,7.2,38.57l35.15,.19Z"/><path class="e" d="M778.78,795.87l-68.72,95.58-35.15-.19c.31,3.75,.56,7.62,.77,11.61l40.31,.22,70.98-98.72c-2.62-2.98-5.34-5.82-8.18-8.5Z"/><path class="e" d="M667.71,852.69l25.94-95.02c-3.82-.58-7.69-1.08-11.62-1.49l-22.93,83.97c3.49,2.36,6.33,6.67,8.61,12.53Z"/></g><rect class="g" width="965.11" height="1133.62"/></g></g></svg>