<?xml version="1.0" encoding="utf-8"?>
<!-- Generator: Adobe Illustrator 26.1.0, SVG Export Plug-In . SVG Version: 6.00 Build 0)  -->
<svg version="1.1" id="Capa_1" xmlns="http://www.w3.org/2000/svg" xmlns:xlink="http://www.w3.org/1999/xlink" x="0px" y="0px"
	 viewBox="0 0 1200 216" style="enable-background:new 0 0 1200 216;" xml:space="preserve">
<style type="text/css">
	.st0{fill:url(#SVGID_1_);}
	.st1{fill:url(#SVGID_00000047782937072669222380000004225192336156488604_);}
	.st2{fill:#F75E66;}
	.st3{fill:#F77E21;}
</style>
<linearGradient id="SVGID_1_" gradientUnits="userSpaceOnUse" x1="49.8997" y1="267.6795" x2="1133.5934" y2="-56.9019">
	<stop  offset="0" style="stop-color:#F77E21"/>
	<stop  offset="1" style="stop-color:#F75E66"/>
</linearGradient>
<path class="st0" d="M58,208.9c104,43.5,227,44.2,333,3.1c60-23.6,121-41.2,184-58c75-19.1,152-16,230-1.5
	c111,19.8,208,69.4,323,60.3c24.6-2,48.6-5.9,72-11.4V4.5H0v165.1C16.2,184.8,34.2,199,58,208.9z"/>
<linearGradient id="SVGID_00000048476053171632203670000007641670206312537018_" gradientUnits="userSpaceOnUse" x1="38.7961" y1="648.149" x2="1130.4592" y2="321.1807">
	<stop  offset="0" style="stop-color:#F77E21"/>
	<stop  offset="1" style="stop-color:#F75E66"/>
</linearGradient>
<path style="fill:url(#SVGID_00000048476053171632203670000007641670206312537018_);" d="M1131.1,417.1c-44.7,5-90-3-132.8-15.6
	c-50.4-14.8-98.7-36.1-148.8-51.7c-80.7-25.1-167.7-35.1-250.1-16.3c-103.2,23.7-192.7,90.6-296.2,112.7
	c-103.6,22.1-231-0.5-300.1-85.7v237.4c1.9-1.3,1129.2,0,1200,0c0,0,0-195.8,0-195.8c-0.1,6.9-64.2,14.1-70.6,14.8
	C1132,417,1131.5,417,1131.1,417.1z"/>
<rect x="93.6" y="-225.2" class="st2" width="603.6" height="162.4"/>
<rect x="914.7" y="-311" class="st3" width="249.7" height="167"/>
</svg>
